<svg width="934" height="95" viewBox="0 0 934 95" fill="none" xmlns="http://www.w3.org/2000/svg">
<path d="M234.304 73.9999V60.7399H199.93V44.1139H226.45V30.8539H199.93V15.7579H233.182V2.59991H184.63V73.9999H234.304Z" fill="#071025"/>
<path d="M259.696 73.9999V26.7739L288.358 73.9999H304.678V2.59991H289.378V49.8259L260.716 2.59991H244.396V73.9999H259.696Z" fill="#071025"/>
<path d="M341.367 74.8159C357.381 74.8159 368.193 66.4519 368.193 53.0899C368.193 24.8359 330.657 36.8719 330.657 21.9799C330.657 17.7979 334.431 14.9419 340.449 14.9419C347.283 14.9419 351.567 18.6139 352.077 24.2239H366.663C366.255 10.6579 355.851 1.78391 340.449 1.78391C325.965 1.78391 315.765 10.1479 315.765 21.9799C315.765 50.0299 352.791 39.3199 352.791 53.2939C352.791 58.6999 348.201 61.5559 341.367 61.5559C333.819 61.5559 329.025 56.9659 328.413 49.7239H313.725C314.337 64.9219 325.149 74.8159 341.367 74.8159Z" fill="#071025"/>
<path d="M448.564 73.9999V60.7399H414.19V44.1139H440.71V30.8539H414.19V15.7579H447.442V2.59991H398.89V73.9999H448.564Z" fill="#071025"/>
<path d="M482.469 73.9999L501.237 22.5919H486.651L475.941 55.8439L465.129 22.5919H450.645L469.413 73.9999H482.469Z" fill="#071025"/>
<path d="M539.015 56.5579C537.893 60.9439 534.119 63.1879 528.407 63.1879C521.267 63.1879 516.677 58.6999 515.657 51.4579H552.581C552.683 50.3359 552.785 48.8059 552.785 46.8679C552.785 35.1379 545.543 21.7759 527.387 21.7759C509.945 21.7759 501.989 35.1379 501.989 48.1939C501.989 61.1479 510.965 74.8159 528.407 74.8159C541.055 74.8159 550.847 67.6759 552.887 56.5579H539.015ZM527.387 32.1799C534.221 32.1799 538.199 36.7699 538.607 42.4819H515.861C517.085 35.3419 520.961 32.1799 527.387 32.1799Z" fill="#071025"/>
<path d="M593.568 22.5919H587.754C581.532 22.5919 577.656 24.7339 574.902 31.1599V22.5919H560.622V73.9999H574.902V49.0099C574.902 40.2379 578.064 34.4239 585.102 34.4239H593.568V22.5919Z" fill="#071025"/>
<path d="M631.583 22.5919L620.873 55.7419L610.061 22.5919H595.577L614.243 73.5919L606.695 94.8079H620.261L627.503 73.7959L646.169 22.5919H631.583Z" fill="#071025"/>
<path d="M676.954 73.9999L686.44 41.9719L695.824 73.9999H708.268L724.894 22.5919H710.716L702.046 54.3139L692.866 22.5919H679.912L670.834 54.3139L662.164 22.5919H647.884L664.612 73.9999H676.954Z" fill="#071025"/>
<path d="M746.247 73.9999V45.8479C746.247 39.2179 750.633 34.4239 756.855 34.4239C762.771 34.4239 766.851 38.9119 766.851 45.1339V73.9999H781.029V41.9719C781.029 30.1399 773.481 21.7759 761.955 21.7759C754.815 21.7759 749.205 24.7339 746.247 29.7319V0.253906H732.069V73.9999H746.247Z" fill="#071025"/>
<path d="M825.791 56.5579C824.669 60.9439 820.895 63.1879 815.183 63.1879C808.043 63.1879 803.453 58.6999 802.433 51.4579H839.357C839.459 50.3359 839.561 48.8059 839.561 46.8679C839.561 35.1379 832.319 21.7759 814.163 21.7759C796.721 21.7759 788.765 35.1379 788.765 48.1939C788.765 61.1479 797.741 74.8159 815.183 74.8159C827.831 74.8159 837.623 67.6759 839.663 56.5579H825.791ZM814.163 32.1799C820.997 32.1799 824.975 36.7699 825.383 42.4819H802.637C803.861 35.3419 807.737 32.1799 814.163 32.1799Z" fill="#071025"/>
<path d="M880.343 22.5919H874.529C868.307 22.5919 864.431 24.7339 861.677 31.1599V22.5919H847.397V73.9999H861.677V49.0099C861.677 40.2379 864.839 34.4239 871.877 34.4239H880.343V22.5919Z" fill="#071025"/>
<path d="M919.623 56.5579C918.501 60.9439 914.727 63.1879 909.015 63.1879C901.875 63.1879 897.285 58.6999 896.265 51.4579H933.189C933.291 50.3359 933.393 48.8059 933.393 46.8679C933.393 35.1379 926.151 21.7759 907.995 21.7759C890.553 21.7759 882.597 35.1379 882.597 48.1939C882.597 61.1479 891.573 74.8159 909.015 74.8159C921.663 74.8159 931.455 67.6759 933.495 56.5579H919.623ZM907.995 32.1799C914.829 32.1799 918.807 36.7699 919.215 42.4819H896.469C897.693 35.3419 901.569 32.1799 907.995 32.1799Z" fill="#071025"/>
<path d="M97.8719 6L63.6995 40.1724L97.8719 74.3448" stroke="#071025" stroke-width="13.4249"/>
<path d="M44.1724 6L10 40.1724L44.1724 74.3448" stroke="#071025" stroke-width="13.4249"/>
<path d="M63.6994 6L97.8718 40.1724L63.6994 74.3448" stroke="#071025" stroke-width="13.4249"/>
<path d="M117.399 6L151.571 40.1724L117.399 74.3448" stroke="#071025" stroke-width="13.4249"/>
</svg>
